<svg xmlns="http://www.w3.org/2000/svg" aria-hidden="true" style="position:absolute;width:0;height:0;overflow:hidden">
  <defs>
    <symbol id="icon-antenna" viewBox="0 0 24 24">
      <path d="m23.08 16.573-6.332-6.379.703-3.462c.181.071.374.108.569.109h.005a1.619 1.619 0 1 0-1.506-1.076l-3.72.454-6.068-6.1a.4.4 0 0 0-.282-.12.4.4 0 0 0-.28.116L5.035 1.243a.4.4 0 0 0 0 .566l.61.619a11.205 11.205 0 0 0 1.89 13.247.37.37 0 0 0 .11.073 2.352 2.352 0 0 0-.039.41v4.64h-4.8a2.002 2.002 0 0 0-2 2v.8a.4.4 0 0 0 .4.4h18.4a.4.4 0 0 0 .4-.4v-.8a2.002 2.002 0 0 0-2-2h-4.8v-2.056a11.26 11.26 0 0 0 2.286.24 11.136 11.136 0 0 0 5.28-1.338l.614.617a.4.4 0 0 0 .282.12.4.4 0 0 0 .28-.116l1.134-1.128a.4.4 0 0 0 0-.566zM17.46 4.675a.8.8 0 1 1 .564 1.367h-.002a.8.8 0 0 1-.56-1.367h-.002zm-.942 2.628-.449 2.209-.882-.887 1.33-1.322zm-.454-.676-1.44 1.432-1.114-1.12 2.554-.312zM18.003 21.6a1.2 1.2 0 0 1 1.2 1.2v.4h-17.6v-.4a1.2 1.2 0 0 1 1.2-1.2h15.2zm-5.6-1.6v.8h-4V20h4zm-4-.8v-3.04c0-.97.897-1.76 2-1.76s2 .79 2 1.76v3.04h-4zm4.8-1.272V16.16c0-1.412-1.256-2.56-2.8-2.56a2.851 2.851 0 0 0-2.461 1.34A10.401 10.401 0 0 1 6.233 3.025l13.951 14.031a10.366 10.366 0 0 1-6.982.872zm8.467-.513L5.877 1.529l.566-.564 5.951 5.985c.003 0 .004.005.007.007l9.836 9.894-.568.564z"/>
      <path d="M10.407 15.2h-.004a1.2 1.2 0 1 0-.004 2.4h.004a1.2 1.2 0 1 0 .004-2.4zm.28 1.484a.4.4 0 1 1-.284-.684.4.4 0 0 1 .28.684h.004z"/>
    </symbol>
    <symbol id="icon-astronaut" viewBox="0 0 24 24">
      <path d="M23.981 3.393a.4.4 0 0 0-.323-.272l-1.433-.208-.641-1.298c-.134-.274-.583-.274-.717 0l-.641 1.298-1.433.208a.4.4 0 0 0-.222.682l1.037 1.011-.245 1.427a.399.399 0 0 0 .581.421l1.282-.674 1.282.674a.397.397 0 0 0 .421-.03.4.4 0 0 0 .159-.391l-.245-1.427 1.037-1.011a.4.4 0 0 0 .101-.41zm-1.848.995a.401.401 0 0 0-.115.354l.143.836-.75-.394a.394.394 0 0 0-.372 0l-.75.394.143-.836a.401.401 0 0 0-.115-.354l-.608-.592.839-.122a.4.4 0 0 0 .301-.219l.375-.76.375.76a.4.4 0 0 0 .301.219l.839.122-.607.592zM19.6 15.392h-.8v.8h.8v-.8zM19.6 16.992h-.8v.8h.8v-.8zM20.4 16.192h-.8v.8h.8v-.8zM18.8 16.192H18v.8h.8v-.8zM16.8 19.792H16v.8h.8v-.8zM16.8 21.392H16v.8h.8v-.8zM17.6 20.592h-.8v.8h.8v-.8zM16 20.592h-.8v.8h.8v-.8zM12 18.192h-.8v.8h.8v-.8zM12 19.792h-.8v.8h.8v-.8zM12.8 18.992H12v.8h.8v-.8zM11.2 18.992h-.8v.8h.8v-.8zM4.4 4.591h-.8v.8h.8v-.8zM4.4 6.192h-.8v.8h.8v-.8zM5.2 5.392h-.8v.8h.8v-.8zM3.6 5.392h-.8v.8h.8v-.8z"/>
      <path d="M18.536 10.62a1.328 1.328 0 0 0-.891-.528 1.335 1.335 0 0 0-1.005.264l-.939.72-1.423 1.063-1.018-.406c1.816-.815 3.085-2.631 3.085-4.74 0-2.867-2.342-5.2-5.221-5.2s-5.221 2.333-5.221 5.2c0 1.039.311 2.006.84 2.819L4.67 9.794h-.004c-.006 0-.012.003-.018.004a.42.42 0 0 0-.116.023l-.029.01c-.005.002-.01.002-.014.005l-2.425 1.197h-.001l-1.42.683a.31.31 0 0 0-.047.026 1.336 1.336 0 0 0 .343 2.389 1.34 1.34 0 0 0 1.034-.096l1.041-.554 1.698-.877 1.018-.006-4.081 4.062-.001.001-1.004 1c-.237.236-.368.549-.368.883s.13.648.368.884a1.253 1.253 0 0 0 1.769 0l.986-.982 1.306-.975.676.673L4.06 19.46l-.001.001-1.004 1c-.237.236-.368.549-.368.883s.13.648.368.884c.244.242.564.364.885.364s.641-.122.885-.364l2.611-2.6.001-.001.757-.75-.003-.003c.005-.005.012-.006.016-.012l3.874-4.244 2.603.37a.36.36 0 0 0 .233-.043c.014-.007.03-.011.043-.02l2.41-1.6c.009-.006.014-.016.022-.022.01-.008.022-.011.03-.019l.954-.893a1.334 1.334 0 0 0 .159-1.771zM1.598 13.328a.533.533 0 0 1-.419.039.537.537 0 0 1-.159-.944l.985-.474.337.984-.744.396zm2.623-1.371-1.161.6-.329-.962 1.52-.75-.03 1.113zm11.324-4.966c0 .689-.164 1.338-.449 1.92L11.96 7.487a1.398 1.398 0 0 0-.591-1.041l1.098-3.645c1.783.567 3.078 2.231 3.078 4.191zm-8.841 0c0-2.426 1.983-4.4 4.421-4.4.19 0 .375.016.559.039L10.61 6.195c-.014 0-.028-.004-.043-.004-.774 0-1.404.628-1.404 1.4s.63 1.4 1.404 1.4c.521 0 .971-.288 1.214-.708l2.897 1.316a4.418 4.418 0 0 1-3.552 1.792c-2.438 0-4.421-1.974-4.421-4.4zm4.467.601c0 .331-.271.6-.604.6s-.604-.269-.604-.6c0-.331.271-.6.604-.6s.604.269.604.6zM1.849 18.86a.456.456 0 0 1-.641 0 .447.447 0 0 1 0-.633l.722-.719.638.636-.719.716zm2.41 2.8a.455.455 0 0 1-.641 0 .447.447 0 0 1 0-.633l.722-.719.639.636-.72.716zm2.611-2.602-.001.001-1.324 1.32-.639-.636 1.322-1.316.001-.001a.375.375 0 0 0 .067-.102c.005-.01.015-.019.02-.03.012-.031.014-.064.019-.096.002-.018.01-.036.01-.054 0-.027-.01-.053-.015-.079-.005-.024-.005-.048-.014-.072a.384.384 0 0 0-.068-.103c-.008-.009-.01-.02-.019-.028s0-.001-.001-.002l-1.205-1.2c-.013-.013-.029-.018-.044-.029-.021-.016-.042-.032-.065-.043s-.046-.018-.07-.024a.403.403 0 0 0-.077-.015c-.024-.002-.047.001-.072.004a.31.31 0 0 0-.149.049c-.015.008-.032.011-.046.022l-1.33.993-.676-.673 1.799-1.79 3.27 3.216-.696.689zm5.114-5.262c-.012-.002-.022.003-.034.002a.355.355 0 0 0-.086.005.374.374 0 0 0-.2.097c-.01.008-.021.012-.03.022L8.11 17.781l-3.246-3.192 2.125-2.114a.4.4 0 0 0-.285-.683l-1.664.01.021-1.206 2.328.02a5.214 5.214 0 0 0 3.736 1.576c.328 0 .648-.034.96-.092a.43.43 0 0 0 .097.064l1.807.72.114.569.134.664-2.252-.32zm3.031.133-.235-1.168 1.085-.81.71.942-1.56 1.036zm2.815-2.123-.628.589-.698-.927.624-.478a.546.546 0 0 1 .767.106.535.535 0 0 1-.064.71z"/>
      <path d="m10.202 13.908-1.607-1.6a.398.398 0 0 0-.564 0l-1.607 1.6a.404.404 0 0 0 0 .568l1.607 1.6a.4.4 0 0 0 .564 0l1.607-1.6a.402.402 0 0 0 0-.568zm-1.89 1.319-1.04-1.036 1.04-1.036 1.04 1.036-1.04 1.036zM12.873 3.803l-.193.777c.053.013 1.303.339 1.303 1.612h.8c0-1.513-1.249-2.224-1.91-2.388zM14.783 6.991h-.8v.8h.8v-.8z"/>
    </symbol>
    <symbol id="icon-clock" viewBox="0 0 24 24">
      <path d="M23.472 11.476C23.471 5.137 18.331-.001 11.991 0S.514 5.142.515 11.481a11.478 11.478 0 0 0 7.987 10.932.506.506 0 0 0 .397-.049.477.477 0 0 0 .212-.267l2.899-9.188a1.434 1.434 0 1 0-.63-2.725l-3.829-3.83a.478.478 0 0 0-.676.677l3.827 3.832a1.407 1.407 0 0 0 .402 1.732L8.342 21.35C2.884 19.339.089 13.285 2.099 7.826s8.065-8.253 13.524-6.243a10.532 10.532 0 0 1 .646 19.504l-.298-1.406a.479.479 0 0 0-.786-.258l-2.878 2.569a.478.478 0 0 0 .173.813l3.674 1.173a.477.477 0 0 0 .614-.555l-.293-1.379a11.443 11.443 0 0 0 6.997-10.567zm-11.478-.478a.478.478 0 1 1 0 .956.478.478 0 0 1 0-.956zm1.575 11.148 1.638-1.461.452 2.13-2.09-.669z"/>
      <path d="M11.516 2.389v.957a.478.478 0 1 0 .956 0v-.957a.478.478 0 1 0-.956 0zM2.907 10.998a.478.478 0 1 0 0 .956h.957a.478.478 0 1 0 0-.956h-.957zM21.081 11.954a.478.478 0 1 0 0-.956h-.957a.478.478 0 1 0 0 .956h.957z"/>
    </symbol>
    <symbol id="icon-diagram" viewBox="0 0 24 24">
      <path d="M11.194 11.223h.8v3.598h-.8v-3.598zM14.392 12.823h.8v1.999h-.8v-1.999zM7.996 14.022h.8v.8h-.8v-.8zM5.597 13.622h.8v1.199h-.8v-1.199z"/>
      <path d="M1.199 21.218h19.19a1.2 1.2 0 0 0 1.199-1.199V18.42a1.2 1.2 0 0 0-1.199-1.199h-.4v-9.97L22.26 5.1a1.206 1.206 0 1 0-.56-.571l-1.711 1.622v-.922A1.2 1.2 0 0 0 18.79 4.03H2.798a1.2 1.2 0 0 0-1.199 1.199v11.994h-.4A1.2 1.2 0 0 0 0 18.422v1.599a1.2 1.2 0 0 0 1.199 1.199zM22.788 3.627a.4.4 0 1 1 0 .8.4.4 0 0 1 0-.8zm-20.389 1.6a.4.4 0 0 1 .4-.4h15.992a.4.4 0 0 1 .4.4v1.679l-.8.76V6.027a.4.4 0 0 0-.4-.4H3.599a.4.4 0 0 0-.4.4v9.995a.4.4 0 0 0 .4.4h14.392a.4.4 0 0 0 .4-.4V8.766l.8-.758v9.213H2.4V5.227zm3.598 5.197a1.2 1.2 0 1 0 .83 2.061l1.39.697a.399.399 0 0 0 .477-.092l2.954-3.323 2.904 2.176a.401.401 0 0 0 .515-.029l2.524-2.391v6.098H3.998V6.426h13.593v1.995L14.762 11.1l-2.928-2.195a.4.4 0 0 0-.539.054L8.3 12.329l-1.12-.56c.008-.048.013-.096.015-.145a1.2 1.2 0 0 0-1.199-1.199zm.4 1.199a.4.4 0 1 1-.8 0 .4.4 0 0 1 .8 0zm2.398 6.397h3.998v.4a.4.4 0 0 1-.4.4H9.195a.4.4 0 0 1-.4-.4v-.4zm-7.995.4a.4.4 0 0 1 .4-.4h6.796v.4a1.2 1.2 0 0 0 1.199 1.199h3.198a1.2 1.2 0 0 0 1.199-1.199v-.4h6.796a.4.4 0 0 1 .4.4v1.599a.4.4 0 0 1-.4.4H1.198a.4.4 0 0 1-.4-.4V18.42z"/>
    </symbol>
    <symbol id="icon-facebook" viewBox="0 0 24 24">
      <path d="M15.997 3.985h2.191V.169C17.81.117 16.51 0 14.996 0c-3.159 0-5.323 1.987-5.323 5.639V9H6.187v4.266h3.486V24h4.274V13.267h3.345l.531-4.266h-3.877V6.062c.001-1.233.333-2.077 2.051-2.077z"/>
    </symbol>
    <symbol id="icon-instagram" viewBox="0 0 24 24">
      <path d="M23.976 7.056c-.056-1.275-.263-2.152-.558-2.912a5.864 5.864 0 0 0-1.388-2.128A5.912 5.912 0 0 0 19.906.633C19.142.338 18.27.131 16.994.075 15.709.014 15.301 0 12.043 0S8.377.014 7.097.07C5.822.126 4.945.333 4.186.628a5.868 5.868 0 0 0-2.129 1.388A5.912 5.912 0 0 0 .674 4.14C.379 4.904.172 5.776.116 7.051.055 8.336.041 8.744.041 12.002s.014 3.666.07 4.946c.056 1.275.263 2.152.558 2.912a5.928 5.928 0 0 0 1.388 2.129 5.912 5.912 0 0 0 2.124 1.383c.764.295 1.636.502 2.912.558 1.28.056 1.688.07 4.946.07s3.666-.014 4.946-.07c1.275-.056 2.152-.263 2.911-.558a6.142 6.142 0 0 0 3.512-3.511c.295-.764.502-1.636.558-2.912.056-1.28.07-1.688.07-4.946s-.005-3.666-.061-4.946zm-2.161 9.799c-.052 1.172-.249 1.805-.413 2.227a3.981 3.981 0 0 1-2.279 2.279c-.422.164-1.059.361-2.227.412-1.266.056-1.646.07-4.848.07s-3.587-.014-4.848-.07c-1.172-.051-1.805-.248-2.227-.412a3.682 3.682 0 0 1-1.378-.896 3.735 3.735 0 0 1-.896-1.378c-.164-.422-.361-1.06-.412-2.227-.056-1.266-.07-1.646-.07-4.848s.014-3.587.07-4.848c.051-1.172.248-1.805.412-2.227.192-.52.497-.994.9-1.378a3.72 3.72 0 0 1 1.378-.895c.422-.164 1.06-.361 2.227-.413 1.266-.056 1.646-.07 4.848-.07 3.207 0 3.587.014 4.848.07 1.172.052 1.805.249 2.227.413.52.192.994.497 1.378.895.398.389.703.858.895 1.378.164.422.361 1.059.413 2.227.056 1.266.07 1.646.07 4.848s-.014 3.577-.07 4.843z"/>
      <path d="M12.045 5.837a6.166 6.166 0 0 0 0 12.33 6.166 6.166 0 0 0 0-12.33zm0 10.164a4 4 0 1 1 .002-8 4 4 0 0 1-.002 8zM19.893 5.593a1.439 1.439 0 1 1-2.877 0 1.439 1.439 0 0 1 2.877 0z"/>
    </symbol>
    <symbol id="icon-linkedin" viewBox="0 0 24 24">
      <path d="M23.994 24v-.001H24v-8.802c0-4.306-.927-7.623-5.961-7.623-2.42 0-4.044 1.328-4.707 2.587h-.07V7.976H8.489v16.023h4.97v-7.934c0-2.089.396-4.109 2.983-4.109 2.549 0 2.587 2.384 2.587 4.243V24h4.965zM.396 7.977h4.976V24H.396V7.977zM2.882 0C1.291 0 0 1.291 0 2.882s1.291 2.909 2.882 2.909c1.591 0 2.882-1.318 2.882-2.909A2.884 2.884 0 0 0 2.882 0z"/>
    </symbol>
    <symbol id="icon-twitter" viewBox="0 0 24 24">
      <path d="M24 4.558c-.893.391-1.843.651-2.835.777a4.893 4.893 0 0 0 2.165-2.72 9.845 9.845 0 0 1-3.12 1.191 4.919 4.919 0 0 0-8.511 3.364c0 .39.033.765.114 1.122-4.09-.2-7.71-2.16-10.142-5.146a4.96 4.96 0 0 0-.674 2.487c0 1.704.877 3.214 2.186 4.089A4.863 4.863 0 0 1 .96 9.116v.054a4.943 4.943 0 0 0 3.942 4.835c-.401.11-.837.162-1.29.162-.315 0-.633-.018-.931-.084.637 1.948 2.447 3.381 4.597 3.427a9.891 9.891 0 0 1-6.101 2.099c-.403 0-.79-.018-1.177-.068a13.856 13.856 0 0 0 7.548 2.208c9.054 0 14.004-7.5 14.004-14.001 0-.217-.008-.428-.018-.636A9.822 9.822 0 0 0 24 4.558z"/>
    </symbol>
  </defs>
</svg>
